<!DOCTYPE svg PUBLIC "-//W3C//DTD SVG 20010904//EN" "http://www.w3.org/TR/2001/REC-SVG-20010904/DTD/svg10.dtd">
<svg version="1.0" xmlns="http://www.w3.org/2000/svg" width="1600px" height="639px" viewBox="0 0 16000 6390" preserveAspectRatio="xMidYMid meet">
<g id="layer101" fill="#c0c0c0" stroke="none">
 <path d="M1165 6264 c-11 -1 -76 -8 -145 -15 -69 -6 -152 -20 -185 -30 -33 -10 -67 -19 -75 -19 -8 0 -32 -9 -53 -20 -20 -11 -42 -20 -47 -20 -6 0 -35 -15 -66 -32 -30 -18 -64 -38 -76 -44 -41 -24 -130 -107 -182 -172 -96 -120 -161 -270 -202 -472 -16 -73 -18 -158 -22 -611 l-3 -526 26 -31 c14 -17 43 -36 63 -42 54 -15 815 -12 867 3 27 9 45 23 60 47 19 33 20 55 25 410 4 287 8 381 18 398 22 38 83 102 97 102 8 0 21 8 31 18 16 15 48 17 332 20 l314 3 52 -27 c55 -28 96 -67 124 -117 16 -30 17 -180 22 -2469 l5 -2438 33 -32 32 -33 461 0 461 0 29 33 29 33 -2 2622 c-3 2523 -4 2624 -22 2682 -10 33 -22 79 -27 102 -4 23 -12 50 -18 60 -5 10 -21 45 -36 78 -66 146 -185 283 -320 370 -42 27 -198 105 -211 105 -6 0 -40 9 -75 19 -125 38 -347 51 -839 50 -250 -1 -464 -3 -475 -5z"/>
 <path d="M4170 6252 c-19 -10 -43 -34 -52 -53 -17 -32 -18 -196 -18 -3003 0 -2126 3 -2979 11 -3005 7 -23 24 -46 43 -59 l32 -22 1450 0 c1139 0 1454 3 1474 13 13 7 35 28 47 46 l23 34 0 423 c0 466 -1 472 -62 507 -27 16 -99 17 -984 17 -640 0 -962 3 -975 10 -19 10 -19 29 -19 750 0 453 4 741 9 745 6 3 335 5 731 5 681 0 724 1 763 18 76 34 72 3 72 509 l0 455 -33 29 -32 29 -743 0 c-408 0 -748 4 -755 8 -10 7 -12 166 -10 763 l3 754 980 5 c539 3 988 9 997 13 10 5 27 24 38 42 19 31 20 48 20 459 0 478 1 470 -70 506 -39 20 -57 20 -1472 20 -1371 0 -1435 -1 -1468 -18z"/>
 <path d="M8140 6248 c-29 -15 -47 -32 -51 -48 -11 -40 -10 -5995 0 -6023 5 -13 25 -34 45 -46 l35 -22 1043 3 c1145 4 1093 1 1298 66 103 32 121 41 245 121 54 35 183 165 219 221 16 25 37 57 47 71 10 15 21 39 25 53 3 14 9 28 13 31 11 6 57 157 78 255 17 81 18 196 18 2260 0 2086 -1 2179 -19 2265 -63 306 -174 482 -401 641 -17 12 -40 24 -53 28 -12 4 -22 11 -22 16 0 5 -16 14 -36 20 -20 7 -48 18 -62 26 -15 8 -35 14 -45 14 -10 0 -34 7 -55 16 -20 8 -89 23 -152 31 -97 14 -271 17 -1120 20 l-1005 4 -45 -23z m1845 -1042 c28 -13 68 -42 89 -64 32 -34 41 -53 52 -109 18 -91 20 -3569 3 -3672 -20 -116 -101 -191 -226 -210 -103 -16 -735 -15 -751 1 -9 9 -12 476 -12 2038 0 1115 3 2030 7 2033 3 4 182 7 397 7 391 0 391 0 441 -24z"/>
 <path d="M12061 6259 c-35 -14 -61 -48 -61 -81 0 -45 19 -164 40 -258 11 -47 29 -130 41 -185 12 -55 29 -138 40 -185 10 -47 28 -130 39 -185 12 -55 30 -136 40 -180 19 -80 39 -173 79 -357 12 -54 30 -142 42 -195 12 -54 30 -138 40 -188 11 -49 29 -130 39 -180 11 -49 29 -133 40 -185 11 -52 29 -133 40 -180 10 -47 28 -128 40 -180 11 -52 28 -126 37 -165 16 -70 29 -131 58 -280 8 -44 20 -93 25 -110 5 -16 17 -66 25 -110 9 -44 22 -114 30 -155 8 -41 20 -88 25 -104 6 -16 15 -59 21 -95 5 -36 16 -88 24 -116 12 -47 22 -88 75 -335 11 -52 29 -135 40 -185 11 -49 29 -135 41 -190 12 -55 29 -138 40 -185 10 -47 28 -130 39 -185 12 -55 30 -136 40 -180 18 -77 41 -183 81 -370 11 -49 29 -130 39 -180 11 -49 29 -133 40 -185 11 -52 29 -133 40 -180 10 -47 22 -105 26 -129 9 -63 39 -123 73 -149 l31 -22 585 2 585 3 35 35 c35 36 37 41 74 225 6 28 17 95 27 150 9 55 24 136 34 180 35 159 60 272 80 370 12 55 30 133 41 172 10 40 19 80 19 90 0 10 9 53 19 98 18 75 30 130 83 375 11 52 28 133 39 180 10 47 28 130 39 185 12 55 30 136 40 180 10 44 21 98 25 120 3 22 12 63 20 90 7 28 23 95 35 150 11 55 29 141 40 190 11 50 29 133 40 185 11 52 28 127 37 165 16 70 29 131 58 280 8 44 20 94 25 110 5 17 16 64 24 105 15 80 28 137 53 239 9 35 22 94 29 132 33 167 42 208 57 274 9 39 26 113 37 165 11 52 29 136 40 185 11 50 29 135 40 190 12 55 30 133 41 172 10 40 19 80 19 90 0 10 9 53 19 98 10 44 29 125 41 180 11 55 29 138 39 185 11 47 29 130 40 185 12 55 31 137 41 183 22 90 25 163 10 191 -5 10 -28 26 -50 35 -35 14 -97 16 -466 16 -534 0 -504 9 -543 -166 -11 -49 -24 -116 -30 -149 -6 -33 -20 -105 -30 -160 -11 -55 -25 -127 -31 -160 -7 -33 -20 -100 -31 -150 -10 -49 -21 -115 -24 -145 -12 -103 -37 -235 -50 -268 l-14 -32 -668 2 -668 3 -16 50 c-9 28 -20 73 -23 100 -4 28 -15 91 -25 140 -11 50 -29 146 -41 215 -12 69 -31 164 -41 212 -10 48 -19 97 -19 110 0 13 -7 50 -15 83 -9 32 -20 92 -26 133 -14 99 -39 146 -90 166 -34 14 -99 16 -467 15 -248 0 -437 -4 -451 -10z m2344 -2135 c18 -7 16 -36 -15 -194 -10 -52 -28 -149 -40 -215 -12 -66 -28 -149 -36 -185 -7 -36 -18 -97 -24 -136 -5 -39 -16 -98 -25 -130 -8 -32 -15 -71 -15 -87 0 -15 -9 -67 -19 -115 -10 -48 -29 -141 -40 -207 -40 -221 -62 -340 -77 -405 -7 -36 -18 -99 -24 -140 -6 -41 -15 -88 -20 -105 -5 -16 -14 -64 -20 -105 -6 -41 -17 -104 -24 -140 -23 -108 -55 -292 -60 -349 -11 -117 -46 -71 -65 86 -6 51 -15 103 -20 117 -6 13 -14 59 -20 102 -6 44 -17 108 -25 144 -8 36 -24 121 -36 190 -12 69 -30 168 -40 220 -10 52 -28 149 -40 215 -12 66 -28 149 -36 185 -8 36 -19 100 -25 144 -6 43 -14 89 -19 101 -5 13 -14 61 -20 107 -6 45 -15 97 -20 113 -5 17 -16 73 -24 125 -9 52 -20 120 -26 150 -15 76 -45 233 -71 371 -13 63 -20 123 -16 132 6 16 43 17 466 17 253 0 467 -3 476 -6z"/>
 </g>

</svg>